<svg width="1000" height="947" viewBox="0 0 1000 947" fill="none" xmlns="http://www.w3.org/2000/svg">
<path d="M297.058 431.49C297.058 431.49 311.132 526.228 357.32 549.762C403.508 573.296 464.891 482.809 488.425 528.997C511.959 575.185 394.564 622.858 394.564 622.858L454.827 741.129C454.827 741.129 387.755 672.758 336.555 680.867C285.356 688.976 242.694 774.728 242.694 774.728L263.459 643.623C263.459 643.623 137.079 634.56 145.188 583.36C153.297 532.161 239.638 599.25 276.293 562.595C312.948 525.94 297.058 431.49 297.058 431.49Z" fill="#FFF28A"/>
<g filter="url(#filter0_n_673_20)">
<path d="M297.058 431.49C297.058 431.49 311.132 526.228 357.32 549.762C403.508 573.296 464.891 482.809 488.425 528.997C511.959 575.185 394.564 622.858 394.564 622.858L454.827 741.129C454.827 741.129 387.755 672.758 336.555 680.867C285.356 688.976 242.694 774.728 242.694 774.728L263.459 643.623C263.459 643.623 137.079 634.56 145.188 583.36C153.297 532.161 239.638 599.25 276.293 562.595C312.948 525.94 297.058 431.49 297.058 431.49Z" fill="url(#paint0_linear_673_20)"/>
</g>
<path d="M299.885 450.522C299.885 450.522 312.333 534.497 354.492 555.163C396.651 575.829 453.234 495.281 474.559 536.146C495.885 577.011 388.241 619.835 388.241 619.835L442.848 724.475C442.848 724.475 381.783 664.13 334.893 671.557C288.004 678.983 248.575 755.245 248.575 755.245L268.174 638.851C268.174 638.851 152.565 631.387 160.219 585.933C167.872 540.478 246.577 599.598 280.286 566.916C313.996 534.234 299.885 450.522 299.885 450.522Z" fill="url(#paint1_radial_673_20)"/>
<path d="M414.843 138.077C414.843 138.077 433.857 231.948 481.213 253.032C528.569 274.117 611.052 225.434 611.052 225.434L522.232 324.079L588.601 439.034C588.601 439.034 518.043 374.267 467.338 385.044C416.633 395.822 378.518 483.689 378.518 483.689L392.393 351.677L271.13 297.687C271.13 297.687 366.282 308.612 400.968 270.089C435.655 231.566 414.843 138.077 414.843 138.077Z" fill="#09FEC2"/>
<g filter="url(#filter1_n_673_20)">
<path d="M414.848 138.081C414.848 138.081 433.861 231.952 481.217 253.036C528.573 274.121 611.056 225.438 611.056 225.438L522.236 324.083L588.605 439.038C588.605 439.038 518.047 374.271 467.342 385.048C416.637 395.826 378.522 483.693 378.522 483.693L392.397 351.681L271.134 297.691C271.134 297.691 366.286 308.616 400.973 270.093C435.659 231.57 414.848 138.081 414.848 138.081Z" fill="url(#paint2_linear_673_20)"/>
</g>
<g filter="url(#filter2_n_673_20)">
<path d="M418.11 154.355C418.11 154.355 435.247 238.962 477.93 257.966C520.613 276.97 597.592 235.492 597.592 235.492L514.901 322.001L567.996 417.29C567.996 417.29 511.126 367.236 465.424 376.95C419.723 386.664 386.685 458.683 386.685 458.683L397.875 346.876L300.537 302.29C300.537 302.29 374.341 308.061 405.604 273.339C436.868 238.618 418.11 154.355 418.11 154.355Z" fill="url(#paint3_radial_673_20)"/>
</g>
<path d="M650.11 347.177C699.411 331.158 728.132 454.565 728.132 454.565L854.375 413.547C854.375 413.547 776.352 469.097 776.352 520.935C776.352 572.773 854.375 628.323 854.375 628.323L728.132 587.304L650.11 694.693C650.11 694.693 680.58 603.891 650.11 561.954C619.64 520.016 523.868 520.935 523.868 520.935L650.11 479.916C650.11 479.916 600.809 363.196 650.11 347.177Z" fill="#F71AC2"/>
<g filter="url(#filter3_n_673_20)">
<path d="M650.11 347.177C699.411 331.158 728.132 454.565 728.132 454.565L854.375 413.547C854.375 413.547 776.352 469.097 776.352 520.935C776.352 572.773 854.375 628.323 854.375 628.323L728.132 587.304L650.11 694.693C650.11 694.693 680.58 603.891 650.11 561.954C619.64 520.016 523.868 520.935 523.868 520.935L650.11 479.916C650.11 479.916 600.809 363.196 650.11 347.177Z" fill="url(#paint4_linear_673_20)"/>
</g>
<g filter="url(#filter4_n_673_20)">
<path d="M655.784 364.251C699.721 349.974 725.318 459.956 725.318 459.956L837.827 423.4C837.827 423.4 768.293 472.907 768.293 519.106C768.293 565.304 837.827 614.812 837.827 614.812L725.318 578.255L655.784 673.961C655.784 673.961 682.939 593.038 655.784 555.662C628.629 518.287 543.275 519.106 543.275 519.106L655.784 482.55C655.784 482.55 611.846 378.527 655.784 364.251Z" fill="url(#paint5_radial_673_20)"/>
</g>
<defs>
<filter id="filter0_n_673_20" x="144.814" y="431.49" width="346.73" height="343.238" filterUnits="userSpaceOnUse" color-interpolation-filters="sRGB">
<feFlood flood-opacity="0" result="BackgroundImageFix"/>
<feBlend mode="normal" in="SourceGraphic" in2="BackgroundImageFix" result="shape"/>
<feTurbulence type="fractalNoise" baseFrequency="1.3683643341064453 1.3683643341064453" stitchTiles="stitch" numOctaves="3" result="noise" seed="6236" />
<feColorMatrix in="noise" type="luminanceToAlpha" result="alphaNoise" />
<feComponentTransfer in="alphaNoise" result="coloredNoise1">
<feFuncA type="discrete" tableValues="1 1 1 1 1 1 1 1 1 1 1 1 1 1 1 1 1 1 1 1 1 1 1 1 1 1 1 1 1 1 1 1 1 1 1 1 1 1 1 1 1 1 1 1 1 1 1 1 1 1 1 0 0 0 0 0 0 0 0 0 0 0 0 0 0 0 0 0 0 0 0 0 0 0 0 0 0 0 0 0 0 0 0 0 0 0 0 0 0 0 0 0 0 0 0 0 0 0 0 0 "/>
</feComponentTransfer>
<feComposite operator="in" in2="shape" in="coloredNoise1" result="noise1Clipped" />
<feFlood flood-color="#BE4301" result="color1Flood" />
<feComposite operator="in" in2="noise1Clipped" in="color1Flood" result="color1" />
<feMerge result="effect1_noise_673_20">
<feMergeNode in="shape" />
<feMergeNode in="color1" />
</feMerge>
</filter>
<filter id="filter1_n_673_20" x="271.134" y="138.08" width="339.922" height="345.613" filterUnits="userSpaceOnUse" color-interpolation-filters="sRGB">
<feFlood flood-opacity="0" result="BackgroundImageFix"/>
<feBlend mode="normal" in="SourceGraphic" in2="BackgroundImageFix" result="shape"/>
<feTurbulence type="fractalNoise" baseFrequency="1.3683643341064453 1.3683643341064453" stitchTiles="stitch" numOctaves="3" result="noise" seed="6236" />
<feColorMatrix in="noise" type="luminanceToAlpha" result="alphaNoise" />
<feComponentTransfer in="alphaNoise" result="coloredNoise1">
<feFuncA type="discrete" tableValues="1 1 1 1 1 1 1 1 1 1 1 1 1 1 1 1 1 1 1 1 1 1 1 1 1 1 1 1 1 1 1 1 1 1 1 1 1 1 1 1 1 1 1 1 1 1 1 1 1 1 1 0 0 0 0 0 0 0 0 0 0 0 0 0 0 0 0 0 0 0 0 0 0 0 0 0 0 0 0 0 0 0 0 0 0 0 0 0 0 0 0 0 0 0 0 0 0 0 0 0 "/>
</feComponentTransfer>
<feComposite operator="in" in2="shape" in="coloredNoise1" result="noise1Clipped" />
<feFlood flood-color="#5DCA7A" result="color1Flood" />
<feComposite operator="in" in2="noise1Clipped" in="color1Flood" result="color1" />
<feMerge result="effect1_noise_673_20">
<feMergeNode in="shape" />
<feMergeNode in="color1" />
</feMerge>
</filter>
<filter id="filter2_n_673_20" x="300.537" y="154.355" width="297.055" height="304.328" filterUnits="userSpaceOnUse" color-interpolation-filters="sRGB">
<feFlood flood-opacity="0" result="BackgroundImageFix"/>
<feBlend mode="normal" in="SourceGraphic" in2="BackgroundImageFix" result="shape"/>
<feTurbulence type="fractalNoise" baseFrequency="1.3683643341064453 1.3683643341064453" stitchTiles="stitch" numOctaves="3" result="noise" seed="6236" />
<feColorMatrix in="noise" type="luminanceToAlpha" result="alphaNoise" />
<feComponentTransfer in="alphaNoise" result="coloredNoise1">
<feFuncA type="discrete" tableValues="1 1 1 1 1 1 1 1 1 1 1 1 1 1 1 1 1 1 1 1 1 1 1 1 1 1 1 1 1 1 1 1 1 1 1 1 1 1 1 1 1 1 1 1 1 1 1 1 1 1 1 0 0 0 0 0 0 0 0 0 0 0 0 0 0 0 0 0 0 0 0 0 0 0 0 0 0 0 0 0 0 0 0 0 0 0 0 0 0 0 0 0 0 0 0 0 0 0 0 0 "/>
</feComponentTransfer>
<feComposite operator="in" in2="shape" in="coloredNoise1" result="noise1Clipped" />
<feFlood flood-color="#A5FFBD" result="color1Flood" />
<feComposite operator="in" in2="noise1Clipped" in="color1Flood" result="color1" />
<feMerge result="effect1_noise_673_20">
<feMergeNode in="shape" />
<feMergeNode in="color1" />
</feMerge>
</filter>
<filter id="filter3_n_673_20" x="523.867" y="345.742" width="330.507" height="348.951" filterUnits="userSpaceOnUse" color-interpolation-filters="sRGB">
<feFlood flood-opacity="0" result="BackgroundImageFix"/>
<feBlend mode="normal" in="SourceGraphic" in2="BackgroundImageFix" result="shape"/>
<feTurbulence type="fractalNoise" baseFrequency="1.3683643341064453 1.3683643341064453" stitchTiles="stitch" numOctaves="3" result="noise" seed="1172" />
<feColorMatrix in="noise" type="luminanceToAlpha" result="alphaNoise" />
<feComponentTransfer in="alphaNoise" result="coloredNoise1">
<feFuncA type="discrete" tableValues="1 1 1 1 1 1 1 1 1 1 1 1 1 1 1 1 1 1 1 1 1 1 1 1 1 1 1 1 1 1 1 1 1 1 1 1 1 1 1 1 1 1 1 1 1 1 1 1 1 1 1 0 0 0 0 0 0 0 0 0 0 0 0 0 0 0 0 0 0 0 0 0 0 0 0 0 0 0 0 0 0 0 0 0 0 0 0 0 0 0 0 0 0 0 0 0 0 0 0 0 "/>
</feComponentTransfer>
<feComposite operator="in" in2="shape" in="coloredNoise1" result="noise1Clipped" />
<feFlood flood-color="rgba(59, 9, 42, 0.25)" result="color1Flood" />
<feComposite operator="in" in2="noise1Clipped" in="color1Flood" result="color1" />
<feMerge result="effect1_noise_673_20">
<feMergeNode in="shape" />
<feMergeNode in="color1" />
</feMerge>
</filter>
<filter id="filter4_n_673_20" x="543.275" y="362.973" width="294.552" height="310.988" filterUnits="userSpaceOnUse" color-interpolation-filters="sRGB">
<feFlood flood-opacity="0" result="BackgroundImageFix"/>
<feBlend mode="normal" in="SourceGraphic" in2="BackgroundImageFix" result="shape"/>
<feTurbulence type="fractalNoise" baseFrequency="8.3339624404907227 8.3339624404907227" stitchTiles="stitch" numOctaves="3" result="noise" seed="3177" />
<feColorMatrix in="noise" type="luminanceToAlpha" result="alphaNoise" />
<feComponentTransfer in="alphaNoise" result="coloredNoise1">
<feFuncA type="discrete" tableValues="1 1 1 1 1 1 1 1 1 1 1 1 1 1 1 1 1 1 1 1 1 1 1 1 1 1 1 1 1 1 1 1 1 1 1 1 1 1 1 1 1 1 1 1 1 1 1 1 1 1 1 0 0 0 0 0 0 0 0 0 0 0 0 0 0 0 0 0 0 0 0 0 0 0 0 0 0 0 0 0 0 0 0 0 0 0 0 0 0 0 0 0 0 0 0 0 0 0 0 0 "/>
</feComponentTransfer>
<feComposite operator="in" in2="shape" in="coloredNoise1" result="noise1Clipped" />
<feFlood flood-color="rgba(255, 200, 248, 0.25)" result="color1Flood" />
<feComposite operator="in" in2="noise1Clipped" in="color1Flood" result="color1" />
<feMerge result="effect1_noise_673_20">
<feMergeNode in="shape" />
<feMergeNode in="color1" />
</feMerge>
</filter>
<linearGradient id="paint0_linear_673_20" x1="340.606" y1="750.121" x2="460.536" y2="567.84" gradientUnits="userSpaceOnUse">
<stop stop-color="#FE5900"/>
<stop offset="1" stop-color="white" stop-opacity="0"/>
</linearGradient>
<radialGradient id="paint1_radial_673_20" cx="0" cy="0" r="1" gradientUnits="userSpaceOnUse" gradientTransform="translate(328.25 602.639) rotate(118.086) scale(163.857 179.486)">
<stop stop-color="#FFF18C"/>
<stop offset="1" stop-color="#FFF28A" stop-opacity="0"/>
</radialGradient>
<linearGradient id="paint2_linear_673_20" x1="488.574" y1="431.583" x2="585.465" y2="266.719" gradientUnits="userSpaceOnUse">
<stop stop-color="#085E55"/>
<stop offset="1" stop-color="white" stop-opacity="0"/>
</linearGradient>
<radialGradient id="paint3_radial_673_20" cx="0" cy="0" r="1" gradientTransform="matrix(-47.5999 136.855 -146.102 -57.3556 454.842 307.354)" gradientUnits="userSpaceOnUse">
<stop stop-color="#09FEC2"/>
<stop offset="1" stop-color="#09FEC2" stop-opacity="0"/>
</radialGradient>
<linearGradient id="paint4_linear_673_20" x1="716.37" y1="620.147" x2="814.797" y2="448.425" gradientUnits="userSpaceOnUse">
<stop stop-color="#8B0B6C"/>
<stop offset="1" stop-color="white" stop-opacity="0"/>
</linearGradient>
<radialGradient id="paint5_radial_673_20" cx="0" cy="0" r="1" gradientTransform="matrix(-50.084 154.468 -165.06 -60.7951 707.719 510.91)" gradientUnits="userSpaceOnUse">
<stop stop-color="#FF64DA"/>
<stop offset="1" stop-color="#E036B7" stop-opacity="0"/>
</radialGradient>
</defs>
</svg>
