<svg width="477" height="453" viewBox="0 0 477 453" fill="none" xmlns="http://www.w3.org/2000/svg">
<path d="M238.036 0.00195312C309.05 0.00194745 294.228 172.872 294.228 172.872H476.071C476.071 172.872 350.902 212.201 328.957 279.711C307.012 347.221 385.15 452.581 385.15 452.581L238.036 345.741L90.9215 452.581C90.9215 452.581 169.059 347.221 147.114 279.711C125.169 212.201 0 172.872 0 172.872H181.843C181.843 172.872 167.021 0.0019588 238.036 0.00195312Z" fill="#F71AC2"/>
<g filter="url(#filter0_n_427_5800)">
<path d="M238.036 0C309.05 -5.67134e-06 294.228 172.87 294.228 172.87H476.071C476.071 172.87 350.902 212.199 328.957 279.709C307.012 347.219 385.15 452.579 385.15 452.579L238.036 345.739L90.9215 452.579C90.9215 452.579 169.059 347.219 147.114 279.709C125.169 212.199 0 172.87 0 172.87H181.843C181.843 172.87 167.021 5.67134e-06 238.036 0Z" fill="url(#paint0_linear_427_5800)"/>
</g>
<g filter="url(#filter1_n_427_5800)">
<path d="M238.203 24.6367C301.491 24.6367 288.282 178.7 288.282 178.7H450.343C450.343 178.7 338.79 213.751 319.233 273.917C299.676 334.083 369.313 427.981 369.313 427.981L238.203 332.764L107.093 427.981C107.093 427.981 176.73 334.083 157.172 273.917C137.615 213.751 26.0625 178.7 26.0625 178.7H188.123C188.123 178.7 174.914 24.6367 238.203 24.6367Z" fill="url(#paint1_radial_427_5800)"/>
</g>
<defs>
<filter id="filter0_n_427_5800" x="0" y="0" width="476.07" height="452.579" filterUnits="userSpaceOnUse" color-interpolation-filters="sRGB">
<feFlood flood-opacity="0" result="BackgroundImageFix"/>
<feBlend mode="normal" in="SourceGraphic" in2="BackgroundImageFix" result="shape"/>
<feTurbulence type="fractalNoise" baseFrequency="0.99885988235473633 0.99885988235473633" stitchTiles="stitch" numOctaves="3" result="noise" seed="1172" />
<feColorMatrix in="noise" type="luminanceToAlpha" result="alphaNoise" />
<feComponentTransfer in="alphaNoise" result="coloredNoise1">
<feFuncA type="discrete" tableValues="1 1 1 1 1 1 1 1 1 1 1 1 1 1 1 1 1 1 1 1 1 1 1 1 1 1 1 1 1 1 1 1 1 1 1 1 1 1 1 1 1 1 1 1 1 1 1 1 1 1 1 0 0 0 0 0 0 0 0 0 0 0 0 0 0 0 0 0 0 0 0 0 0 0 0 0 0 0 0 0 0 0 0 0 0 0 0 0 0 0 0 0 0 0 0 0 0 0 0 0 "/>
</feComponentTransfer>
<feComposite operator="in" in2="shape" in="coloredNoise1" result="noise1Clipped" />
<feFlood flood-color="rgba(59, 9, 42, 0.25)" result="color1Flood" />
<feComposite operator="in" in2="noise1Clipped" in="color1Flood" result="color1" />
<feMerge result="effect1_noise_427_5800">
<feMergeNode in="shape" />
<feMergeNode in="color1" />
</feMerge>
</filter>
<filter id="filter1_n_427_5800" x="26.0625" y="24.6367" width="424.281" height="403.344" filterUnits="userSpaceOnUse" color-interpolation-filters="sRGB">
<feFlood flood-opacity="0" result="BackgroundImageFix"/>
<feBlend mode="normal" in="SourceGraphic" in2="BackgroundImageFix" result="shape"/>
<feTurbulence type="fractalNoise" baseFrequency="6.0835108757019043 6.0835108757019043" stitchTiles="stitch" numOctaves="3" result="noise" seed="3177" />
<feColorMatrix in="noise" type="luminanceToAlpha" result="alphaNoise" />
<feComponentTransfer in="alphaNoise" result="coloredNoise1">
<feFuncA type="discrete" tableValues="1 1 1 1 1 1 1 1 1 1 1 1 1 1 1 1 1 1 1 1 1 1 1 1 1 1 1 1 1 1 1 1 1 1 1 1 1 1 1 1 1 1 1 1 1 1 1 1 1 1 1 0 0 0 0 0 0 0 0 0 0 0 0 0 0 0 0 0 0 0 0 0 0 0 0 0 0 0 0 0 0 0 0 0 0 0 0 0 0 0 0 0 0 0 0 0 0 0 0 0 "/>
</feComponentTransfer>
<feComposite operator="in" in2="shape" in="coloredNoise1" result="noise1Clipped" />
<feFlood flood-color="rgba(255, 200, 248, 0.25)" result="color1Flood" />
<feComposite operator="in" in2="noise1Clipped" in="color1Flood" result="color1" />
<feMerge result="effect1_noise_427_5800">
<feMergeNode in="shape" />
<feMergeNode in="color1" />
</feMerge>
</filter>
<linearGradient id="paint0_linear_427_5800" x1="208.807" y1="383.533" x2="409.664" y2="201.461" gradientUnits="userSpaceOnUse">
<stop stop-color="#8B0B6C"/>
<stop offset="1" stop-color="white" stop-opacity="0"/>
</linearGradient>
<radialGradient id="paint1_radial_427_5800" cx="0" cy="0" r="1" gradientTransform="matrix(-130.644 179.975 -189.317 -149.02 243.782 237.611)" gradientUnits="userSpaceOnUse">
<stop stop-color="#FF64DA"/>
<stop offset="1" stop-color="#E036B7" stop-opacity="0"/>
</radialGradient>
</defs>
</svg>
