<svg width="480" height="453" viewBox="0 0 480 453" fill="none" xmlns="http://www.w3.org/2000/svg">
<path d="M240.001 0C240.001 0 238.742 131.146 296.193 172.87C353.645 214.593 456.092 105.36 478.036 172.87C499.981 240.379 330.922 279.709 330.922 279.709L387.115 452.579C387.115 452.579 311.015 345.739 240.001 345.739C168.987 345.739 92.8869 452.579 92.8869 452.579L149.079 279.709C149.079 279.709 -19.9791 240.379 1.96541 172.87C23.91 105.36 126.357 214.593 183.808 172.87C241.26 131.146 240.001 0 240.001 0Z" fill="#FFF28A"/>
<g filter="url(#filter0_n_427_5804)">
<path d="M240.001 0C240.001 0 238.742 131.146 296.193 172.87C353.645 214.593 456.092 105.36 478.036 172.87C499.981 240.379 330.922 279.709 330.922 279.709L387.115 452.579C387.115 452.579 311.015 345.739 240.001 345.739C168.987 345.739 92.8869 452.579 92.8869 452.579L149.079 279.709C149.079 279.709 -19.9791 240.379 1.96541 172.87C23.91 105.36 126.357 214.593 183.808 172.87C241.26 131.146 240.001 0 240.001 0Z" fill="url(#paint0_linear_427_5804)"/>
</g>
<path d="M239.745 26.3457C239.745 26.3457 238.592 142.587 291.207 179.569C343.822 216.55 437.644 119.731 457.741 179.569C477.838 239.406 323.012 274.265 323.012 274.265L374.474 427.488C374.474 427.488 304.78 332.791 239.745 332.791C174.709 332.791 105.016 427.488 105.016 427.488L156.478 274.265C156.478 274.265 1.65209 239.406 21.7492 179.569C41.8462 119.731 135.668 216.55 188.283 179.569C240.898 142.587 239.745 26.3457 239.745 26.3457Z" fill="url(#paint1_radial_427_5804)"/>
<defs>
<filter id="filter0_n_427_5804" x="0" y="0" width="480.002" height="452.578" filterUnits="userSpaceOnUse" color-interpolation-filters="sRGB">
<feFlood flood-opacity="0" result="BackgroundImageFix"/>
<feBlend mode="normal" in="SourceGraphic" in2="BackgroundImageFix" result="shape"/>
<feTurbulence type="fractalNoise" baseFrequency="0.99885988235473633 0.99885988235473633" stitchTiles="stitch" numOctaves="3" result="noise" seed="6236" />
<feColorMatrix in="noise" type="luminanceToAlpha" result="alphaNoise" />
<feComponentTransfer in="alphaNoise" result="coloredNoise1">
<feFuncA type="discrete" tableValues="1 1 1 1 1 1 1 1 1 1 1 1 1 1 1 1 1 1 1 1 1 1 1 1 1 1 1 1 1 1 1 1 1 1 1 1 1 1 1 1 1 1 1 1 1 1 1 1 1 1 1 0 0 0 0 0 0 0 0 0 0 0 0 0 0 0 0 0 0 0 0 0 0 0 0 0 0 0 0 0 0 0 0 0 0 0 0 0 0 0 0 0 0 0 0 0 0 0 0 0 "/>
</feComponentTransfer>
<feComposite operator="in" in2="shape" in="coloredNoise1" result="noise1Clipped" />
<feFlood flood-color="#BE4301" result="color1Flood" />
<feComposite operator="in" in2="noise1Clipped" in="color1Flood" result="color1" />
<feMerge result="effect1_noise_427_5804">
<feMergeNode in="shape" />
<feMergeNode in="color1" />
</feMerge>
</filter>
<linearGradient id="paint0_linear_427_5804" x1="230.64" y1="440.273" x2="431.884" y2="219.345" gradientUnits="userSpaceOnUse">
<stop stop-color="#FE5900"/>
<stop offset="1" stop-color="white" stop-opacity="0"/>
</linearGradient>
<radialGradient id="paint1_radial_427_5804" cx="0" cy="0" r="1" gradientTransform="matrix(-135.359 178.993 -196.149 -148.207 245.525 238.158)" gradientUnits="userSpaceOnUse">
<stop stop-color="#FFF18C"/>
<stop offset="1" stop-color="#FFF28A" stop-opacity="0"/>
</radialGradient>
</defs>
</svg>
