<svg width="821" height="809" viewBox="0 0 821 809" fill="none" xmlns="http://www.w3.org/2000/svg">
<g filter="url(#filter0_g_427_6671)">
<path d="M456.625 599.668C431.084 581.266 404.4 596.084 374.425 586.469C317.305 568.146 284.083 545.191 250.825 495.269C221.594 451.393 212.829 418.389 213.025 365.669C213.269 299.657 225.833 253.406 273.625 207.869C321.637 162.122 398.424 164.069 435.025 155.069C471.625 146.069 500.425 118.468 488.425 100.469C476.424 82.469 443.914 65.6467 423.625 61.469C403.225 57.2685 345.203 61.9578 298.225 77.069C241.608 95.2803 210.876 114.46 167.425 155.069C120.515 198.91 82.8245 266.07 76.2246 291.869C69.6246 317.668 54.0247 401.068 62.4246 451.469C70.8245 501.87 88.469 546.165 123.625 596.668C167.418 659.581 235.825 706.468 273.625 723.269C311.425 740.069 370.224 757.469 423.625 744.269C477.025 731.069 486.792 710.417 490.225 672.269C493.117 640.121 482.813 618.537 456.625 599.668Z" fill="url(#paint0_linear_427_6671)"/>
<path d="M337.825 602.068C363.366 583.665 416.449 594.883 446.425 585.268C503.544 566.945 535.929 545.459 569.187 495.536C598.418 451.661 607.183 418.657 606.987 365.937C606.743 299.924 594.179 253.674 546.387 208.137C498.375 162.389 410.425 159.268 387.025 161.068C363.625 162.867 319.587 118.736 331.587 100.736C343.587 82.7366 376.098 65.9135 396.387 61.7366C414.025 58.1057 474.809 62.2254 521.787 77.3366C578.404 95.5479 609.136 114.728 652.587 155.337C699.497 199.178 737.187 266.337 743.787 292.137C750.387 317.936 765.987 401.336 757.587 451.736C749.187 502.137 731.543 546.432 696.387 596.936C652.594 659.848 584.187 706.736 546.387 723.536C508.587 740.337 402.025 756.868 348.625 743.668C295.225 730.467 305.258 714.616 301.825 676.468C298.932 644.32 311.637 620.936 337.825 602.068Z" fill="url(#paint1_linear_427_6671)"/>
</g>
<defs>
<filter id="filter0_g_427_6671" x="-3.8147e-06" y="-3.8147e-06" width="820.012" height="808.92" filterUnits="userSpaceOnUse" color-interpolation-filters="sRGB">
<feFlood flood-opacity="0" result="BackgroundImageFix"/>
<feBlend mode="normal" in="SourceGraphic" in2="BackgroundImageFix" result="shape"/>
<feTurbulence type="fractalNoise" baseFrequency="0.20000000298023224 0.20000000298023224" numOctaves="3" seed="6706" />
<feDisplacementMap in="shape" scale="120.00000762939453" xChannelSelector="R" yChannelSelector="G" result="displacedImage" width="100%" height="100%" />
<feMerge result="effect1_texture_427_6671">
<feMergeNode in="displacedImage"/>
</feMerge>
</filter>
<linearGradient id="paint0_linear_427_6671" x1="410.006" y1="60" x2="410.006" y2="748.92" gradientUnits="userSpaceOnUse">
<stop stop-color="#FF0000"/>
<stop offset="0.44814" stop-color="#E00666"/>
<stop offset="1" stop-color="#8B22BB"/>
</linearGradient>
<linearGradient id="paint1_linear_427_6671" x1="410.006" y1="60" x2="410.006" y2="748.92" gradientUnits="userSpaceOnUse">
<stop stop-color="#FF0000"/>
<stop offset="0.44814" stop-color="#E00666"/>
<stop offset="1" stop-color="#8B22BB"/>
</linearGradient>
</defs>
</svg>
