<svg width="826" height="1020" viewBox="0 0 826 1020" fill="none" xmlns="http://www.w3.org/2000/svg">
<g filter="url(#filter0_g_427_6673)">
<path d="M285.106 223.255C90.5544 403.898 25.4067 894.555 103.807 942.855C182.206 991.155 481.806 714.655 647.006 655.855C812.206 597.055 759.706 188.954 665.907 105.654C572.107 22.3548 415.267 102.399 285.106 223.255Z" fill="url(#paint0_linear_427_6673)"/>
<path d="M285.106 223.255C90.5544 403.898 25.4067 894.555 103.807 942.855C182.206 991.155 481.806 714.655 647.006 655.855C812.206 597.055 759.706 188.954 665.907 105.654C572.107 22.3548 415.267 102.399 285.106 223.255Z" stroke="black" stroke-width="2.8"/>
</g>
<defs>
<filter id="filter0_g_427_6673" x="0" y="0" width="825.383" height="1019.89" filterUnits="userSpaceOnUse" color-interpolation-filters="sRGB">
<feFlood flood-opacity="0" result="BackgroundImageFix"/>
<feBlend mode="normal" in="SourceGraphic" in2="BackgroundImageFix" result="shape"/>
<feTurbulence type="fractalNoise" baseFrequency="0.20000000298023224 0.20000000298023224" numOctaves="3" seed="2794" />
<feDisplacementMap in="shape" scale="140" xChannelSelector="R" yChannelSelector="G" result="displacedImage" width="100%" height="100%" />
<feMerge result="effect1_texture_427_6673">
<feMergeNode in="displacedImage"/>
</feMerge>
</filter>
<linearGradient id="paint0_linear_427_6673" x1="603.566" y1="151.007" x2="371.838" y2="936.435" gradientUnits="userSpaceOnUse">
<stop stop-color="#9AFFBB"/>
<stop offset="0.466346" stop-color="#96CCBB"/>
<stop offset="1" stop-color="#2A9BBD"/>
</linearGradient>
</defs>
</svg>
