<svg width="1160" height="1117" viewBox="0 0 1160 1117" fill="none" xmlns="http://www.w3.org/2000/svg">
<g filter="url(#filter0_g_427_6667)">
<path d="M579.972 100C721.839 100 546.2 362.105 660.972 445.491C775.744 528.878 1011.66 310.569 1055.5 445.491C1099.34 580.414 805.447 524.094 761.608 659.017C717.769 793.94 988.637 921.122 873.865 1004.51C759.093 1087.9 745.338 706 603.472 706C461.606 706 400.852 1087.9 286.08 1004.51C171.307 921.122 442.176 793.94 398.337 659.017C354.498 524.094 60.6049 580.414 104.444 445.491C148.283 310.569 502.133 650.923 545.972 516C589.811 381.077 438.106 100 579.972 100Z" fill="url(#paint0_linear_427_6667)"/>
</g>
<defs>
<filter id="filter0_g_427_6667" x="0" y="0" width="1159.95" height="1116.42" filterUnits="userSpaceOnUse" color-interpolation-filters="sRGB">
<feFlood flood-opacity="0" result="BackgroundImageFix"/>
<feBlend mode="normal" in="SourceGraphic" in2="BackgroundImageFix" result="shape"/>
<feTurbulence type="fractalNoise" baseFrequency="0.20000000298023224 0.20000000298023224" numOctaves="3" seed="8402" />
<feDisplacementMap in="shape" scale="200" xChannelSelector="R" yChannelSelector="G" result="displacedImage" width="100%" height="100%" />
<feMerge result="effect1_texture_427_6667">
<feMergeNode in="displacedImage"/>
</feMerge>
</filter>
<linearGradient id="paint0_linear_427_6667" x1="718.965" y1="83.7281" x2="431.991" y2="1065.76" gradientUnits="userSpaceOnUse">
<stop stop-color="#FFEEBB"/>
<stop offset="0.403846" stop-color="#FDB085"/>
<stop offset="1" stop-color="#FF0000"/>
</linearGradient>
</defs>
</svg>
